<svg width="20" height="20" viewBox="0 0 10 9" fill="none" xmlns="http://www.w3.org/2000/svg">
<path d="M5.00312 0.422652C5.06476 0.232927 5.33317 0.232927 5.39482 0.422653L6.26235 3.09265C6.28992 3.1775 6.36899 3.23494 6.4582 3.23494H9.2656C9.46509 3.23494 9.54804 3.49022 9.38665 3.60747L7.11541 5.25762C7.04324 5.31006 7.01304 5.40301 7.0406 5.48786L7.90814 8.15785C7.96978 8.34758 7.75264 8.50535 7.59125 8.38809L5.32001 6.73794C5.24784 6.6855 5.1501 6.6855 5.07793 6.73794L2.80669 8.38809C2.6453 8.50535 2.42815 8.34758 2.4898 8.15785L3.35733 5.48786C3.3849 5.40301 3.3547 5.31006 3.28252 5.25762L1.01129 3.60747C0.849901 3.49022 0.932845 3.23494 1.13233 3.23494H3.93973C4.02895 3.23494 4.10802 3.1775 4.13558 3.09265L5.00312 0.422652Z" fill="#F1CC4A"/>
</svg>
